<?xml version="1.0" encoding="iso-8859-1"?>
<!-- Generator: Adobe Illustrator 15.1.0, SVG Export Plug-In  -->
<!DOCTYPE svg PUBLIC "-//W3C//DTD SVG 1.1 Tiny//EN" "http://www.w3.org/Graphics/SVG/1.1/DTD/svg11-tiny.dtd" [
	<!ENTITY ns_flows "http://ns.adobe.com/Flows/1.0/">
]>
<svg version="1.1" baseProfile="tiny"
	 xmlns="http://www.w3.org/2000/svg" xmlns:xlink="http://www.w3.org/1999/xlink" xmlns:a="http://ns.adobe.com/AdobeSVGViewerExtensions/3.0/"
	 x="0px" y="0px" width="100%" height="100%" viewBox="-15.659668 -5.2490234 200 75" xml:space="preserve">
<defs>
</defs>
<path fill="#0000FF" d="M166.7895508,1.9223633c-1.0693359-0.3950195-2.6298828-0.6123047-4.5869141-0.6123047
	c-3.5380859,0-5.7705078,1.8974609-5.7705078,4.4667969c0,1.5219727,0.7695313,2.5688477,2.3115234,3.2216797
	c1.8779297,0.7905273,2.9853516,1.0078125,2.9853516,2.1938477c0,1.027832-1.0878906,1.7197266-3.0253906,1.7197266
	c-1.0664063,0-2.1347656-0.2963867-3.2412109-0.8500977l-0.7910156,2.8261719
	c1.4433594,0.5136719,2.9658203,0.7509766,4.5869141,0.7509766c4.0703125,0,6.3828125-2.0356445,6.3828125-4.9208984
	c0-1.8383789-0.9482422-2.668457-2.9443359-3.6367188c-1.4433594-0.6923828-2.3916016-0.7910156-2.3916016-1.7592773
	c0-0.8901367,0.8496094-1.4038086,2.5302734-1.4038086c1.0664063,0,2.0947266,0.2182617,3.1025391,0.6723633L166.7895508,1.9223633
	L166.7895508,1.9223633z M144.5727539,1.6069336l-2.9042969,13.7163086h3.7363281l1.2236328-5.8110352h4.2705078
	l-1.2451172,5.8110352h3.7548828l2.9042969-13.7163086h-3.734375l-1.1054688,5.1582031h-4.25l1.0859375-5.1582031H144.5727539
	L144.5727539,1.6069336z M130.5258789,1.6069336l-2.9248047,13.7163086h3.3603516l2.0097656-9.4428711
	c0.2324219,0.7548828,2.8710938,9.4428711,2.8710938,9.4428711h4.5078125l2.9257813-13.7163086h-3.3417969l-1.4628906,6.9365234
	c-0.2363281,1.0673828-0.5361328,2.5283203-0.5361328,2.5283203c-0.2910156-0.9609375-2.9033203-9.4648438-2.9033203-9.4648438
	H130.5258789L130.5258789,1.6069336z M126.4770508,0h41.8164063v16.9204102h-41.8164063V0L126.4770508,0z"/>
<polygon fill="#0000FF" points="59.1459961,31.5727539 61.0258789,31.5727539 62.3178711,24.2485352 62.3457031,24.2485352 
	64.800293,31.5727539 67.199707,31.5727539 68.9267578,21.7792969 67.046875,21.7792969 65.7553711,29.1035156 
	65.7265625,29.1035156 63.2866211,21.7792969 60.8725586,21.7792969 59.1459961,31.5727539 "/>
<path fill-rule="evenodd" fill="#0000FF" d="M69.3701172,28.0087891c-0.3657227,2.0766602,0.7314453,3.7324219,3.1166992,3.7324219
	c2.3989258,0,4.0805664-1.6557617,4.4462891-3.7324219c0.4204102-2.3847656-0.9663086-3.8305664-3.1132813-3.8305664
	C71.6875,24.1782227,69.7915039,25.6240234,69.3701172,28.0087891L69.3701172,28.0087891z M71.3740234,27.7841797
	c0.190918-1.0800781,0.9682617-2.1469727,2.1889648-2.1469727c1.234375,0,1.6411133,1.0385742,1.4453125,2.1469727
	c-0.2124023,1.206543-0.8193359,2.4975586-2.2641602,2.4975586C71.3129883,30.2817383,71.1640625,28.9770508,71.3740234,27.7841797
	L71.3740234,27.7841797z"/>
<path fill="#0000FF" d="M78.777832,29.3974609c-0.2524414,1.4316406,0.3999023,2.34375,1.8735352,2.34375
	c0.5605469,0,1.0058594-0.0561523,1.4189453-0.168457l0.2060547-1.4873047
	c-0.2182617,0.1259766-0.5541992,0.1962891-0.8911133,0.1962891c-0.7148438,0-0.7817383-0.574707-0.6733398-1.1923828
	l0.59375-3.3676758h1.6704102l0.2416992-1.375h-1.6694336l0.3603516-2.0483398l-1.9858398,0.6030273l-0.2543945,1.4453125
	h-1.3896484l-0.2421875,1.375h1.3891602L78.777832,29.3974609L78.777832,29.3974609z"/>
<path fill="#0000FF" d="M84.2338867,29.3974609c-0.2524414,1.4316406,0.4008789,2.34375,1.8740234,2.34375
	c0.5605469,0,1.0048828-0.0561523,1.4179688-0.168457l0.2070313-1.4873047
	c-0.2197266,0.1259766-0.5546875,0.1962891-0.8916016,0.1962891c-0.7158203,0-0.78125-0.574707-0.6728516-1.1923828
	l0.59375-3.3676758h1.6689453l0.2431641-1.375h-1.6699219l0.3613281-2.0483398l-1.9863281,0.6030273l-0.2548828,1.4453125
	h-1.3896484l-0.2421875,1.375h1.3896484L84.2338867,29.3974609L84.2338867,29.3974609z"/>
<path fill-rule="evenodd" fill="#0000FF" d="M88.730957,31.5727539h1.8808594l1.2734375-7.2260742h-1.8798828L88.730957,31.5727539
	L88.730957,31.5727539z M90.2387695,23.027832h1.8779297l0.3173828-1.7958984h-1.8808594L90.2387695,23.027832L90.2387695,23.027832
	z"/>
<path fill="#0000FF" d="M92.5883789,31.5727539h1.8798828l0.6220703-3.5356445
	c0.1640625-0.9262695,0.7177734-2.3999023,2.078125-2.3999023c1.2070313,0,1.0107422,1.1928711,0.8554688,2.0771484
	l-0.6796875,3.8583984h1.8808594l0.8037109-4.5600586c0.2871094-1.6279297-0.2451172-2.8344727-1.9560547-2.8344727
	c-0.9824219,0-1.8398438,0.3227539-2.5742188,1.1503906h-0.0273438l0.1738281-0.9819336h-1.7832031L92.5883789,31.5727539
	L92.5883789,31.5727539z"/>
<path fill-rule="evenodd" fill="#0000FF" d="M104.5170898,30.1132813c-1.0791016,0-1.3876953-1.2060547-1.2138672-2.1884766
	c0.1962891-1.1088867,0.8125-2.2875977,2.0878906-2.2875977c1.0927734,0,1.3935547,1.0107422,1.1757813,2.2456055
	C106.3540039,29.0893555,105.6948242,30.1132813,104.5170898,30.1132813L104.5170898,30.1132813z M107.2729492,24.3466797
	l-0.1728516,0.9819336h-0.0273438c-0.3730469-0.8276367-1.0605469-1.1503906-2.0146484-1.1503906
	c-2.1591797,0-3.4121094,2.0063477-3.7177734,3.746582c-0.34375,1.9360352,0.1689453,3.6479492,2.3027344,3.6479492
	c1.0507813,0,1.9863281-0.5332031,2.4462891-1.1508789h0.0292969c-0.2197266,1.2490234-0.5927734,2.8066406-2.6689453,2.8066406
	c-0.5898438,0-1.4726563-0.3232422-1.9941406-0.6318359l-0.4355469,1.5996094
	c0.8300781,0.3789063,1.6669922,0.4912109,2.4101563,0.4912109c3.03125,0,4.1435547-1.8525391,4.4902344-3.8164063
	l1.1503906-6.5244141H107.2729492L107.2729492,24.3466797z"/>
<path fill="#0000FF" d="M109.730957,31.5727539h1.8808594l0.6230469-3.5356445
	c0.1621094-0.9262695,0.7177734-2.3999023,2.078125-2.3999023c1.2070313,0,1.0117188,1.1928711,0.8554688,2.0771484
	l-0.6816406,3.8583984h1.8808594l0.8046875-4.5600586c0.2861328-1.6279297-0.2451172-2.8344727-1.9560547-2.8344727
	c-0.9833984,0-1.8740234,0.4492188-2.4775391,1.1503906h-0.0263672l0.7548828-4.2788086h-1.8808594L109.730957,31.5727539
	L109.730957,31.5727539z"/>
<path fill-rule="evenodd" fill="#0000FF" d="M119.6040039,26.3388672c0.7148438-0.4765625,1.5683594-0.7856445,2.3701172-0.7856445
	c1.1083984,0,1.5585938,0.3930664,1.3525391,1.5576172h-1.0390625c-0.7851563,0-1.7226563,0.0698242-2.5019531,0.4208984
	c-0.7753906,0.3510742-1.40625,0.9824219-1.5976563,2.0625c-0.2421875,1.375,0.8691406,2.1469727,2.1484375,2.1469727
	c0.8535156,0,1.8740234-0.449707,2.4492188-1.2490234h0.0292969c-0.0273438,0.2246094-0.109375,0.7016602-0.1074219,1.0805664
	h1.65625c0.0566406-0.5610352,0.1171875-1.0664063,0.2001953-1.6137695
	c0.0791016-0.5327148,0.1621094-1.0805664,0.2910156-1.8095703l0.1630859-0.9262695
	c0.375-2.1323242-0.375-3.0449219-2.578125-3.0449219c-0.7988281,0-1.8193359,0.2109375-2.6083984,0.546875L119.6040039,26.3388672
	L119.6040039,26.3388672z M120.0043945,29.4819336c0.1953125-1.1079102,1.46875-1.2485352,2.3105469-1.2485352h0.8134766
	c-0.0986328,0.5610352-0.2753906,1.0800781-0.6542969,1.4868164c-0.3642578,0.3930664-0.8583984,0.6455078-1.4345703,0.6455078
	C120.3666992,30.3657227,119.8950195,30.0991211,120.0043945,29.4819336L120.0043945,29.4819336z"/>
<path fill="#0000FF" d="M126.0727539,31.5727539h1.8808594l0.6191406-3.5078125
	c0.1660156-0.9399414,0.5820313-2.4277344,1.8300781-2.4277344c1.0800781,0,0.9121094,0.9545898,0.7929688,1.6279297
	l-0.7578125,4.3076172h1.8789063l0.6191406-3.5078125c0.1660156-0.9399414,0.5820313-2.4277344,1.8300781-2.4277344
	c1.0820313,0,0.9121094,0.9545898,0.7929688,1.6279297l-0.7578125,4.3076172h1.8808594l0.8027344-4.5600586
	c0.2841797-1.6137695-0.0039063-2.8344727-1.7871094-2.8344727c-0.8828125,0-1.8945313,0.4072266-2.484375,1.2773438
	c-0.2480469-0.8984375-0.8964844-1.2773438-1.90625-1.2773438c-0.7011719,0-1.609375,0.2944336-2.3544922,1.1791992h-0.0292969
	l0.1787109-1.0107422h-1.7539063L126.0727539,31.5727539L126.0727539,31.5727539z"/>
<path fill="#0000FF" d="M150.0004883,29.7905273c-0.5068359,0.2387695-1.4472656,0.4072266-2.21875,0.4072266
	c-2.0908203,0-3.0605469-1.5019531-2.7109375-3.4936523c0.3544922-2.0068359,1.8886719-3.550293,3.9091797-3.550293
	c0.7021484,0,1.3583984,0.0986328,2.0283203,0.5195313l0.4316406-1.6552734
	c-0.6660156-0.28125-1.4990234-0.4072266-2.1445313-0.4072266c-3.3261719,0-5.7060547,1.8798828-6.296875,5.2333984
	c-0.5849609,3.3105469,1.3398438,4.8969727,4.5097656,4.8969727c0.7441406,0,1.5410156-0.1411133,2.2861328-0.3085938
	L150.0004883,29.7905273L150.0004883,29.7905273z"/>
<path fill-rule="evenodd" fill="#0000FF" d="M151.0874023,31.5727539h1.8779297l1.2753906-7.2260742h-1.8789063
	L151.0874023,31.5727539L151.0874023,31.5727539z M152.5922852,23.027832h1.8808594l0.3173828-1.7958984h-1.8798828
	L152.5922852,23.027832L152.5922852,23.027832z"/>
<path fill="#0000FF" d="M155.9438477,29.3974609c-0.2519531,1.4316406,0.4023438,2.34375,1.8740234,2.34375
	c0.5615234,0,1.0068359-0.0561523,1.4189453-0.168457l0.2050781-1.4873047
	c-0.2167969,0.1259766-0.5537109,0.1962891-0.8886719,0.1962891c-0.7167969,0-0.7832031-0.574707-0.6757813-1.1923828
	l0.5947266-3.3676758h1.6708984l0.2402344-1.375h-1.6679688l0.3613281-2.0483398l-1.9863281,0.6030273l-0.2558594,1.4453125
	h-1.3896484l-0.2421875,1.375h1.3896484L155.9438477,29.3974609L155.9438477,29.3974609z"/>
<path fill="#0000FF" d="M162.9360352,24.3466797h-2.0742188l1.4238281,7.590332
	c-0.1367188,0.7719727-0.6914063,1.2915039-1.4472656,1.2915039c-0.4648438,0-0.7226563-0.0419922-0.9472656-0.1259766
	l-0.3710938,1.3886719c0.4130859,0.1269531,0.8496094,0.1962891,1.2988281,0.1962891
	c1.9648438,0,2.6767578-1.5712891,3.5625-3.1708984l3.9707031-7.1699219h-1.9082031l-2.6699219,5.2758789h-0.0273438
	L162.9360352,24.3466797L162.9360352,24.3466797z"/>
<path fill="#0000FF" d="M9.3793945,53.9648438c-0.4067383,0.2099609-1.2089844,0.3583984-1.8876953,0.3583984
	c-1.8378906,0-2.9233398-1.3203125-2.9233398-3.0722656c0-1.765625,1.1098633-3.1220703,2.8862305-3.1220703
	c0.6171875,0,1.2089844,0.0869141,1.862793,0.4560547l0.1235352-1.4541016
	c-0.6289063-0.2470703-1.3818359-0.3583984-1.9492188-0.3583984c-2.9233398,0-4.7250977,1.6523438-4.7250977,4.6015625
	c0,2.9121094,1.9370117,4.3056641,4.7250977,4.3056641c0.6542969,0,1.3325195-0.1230469,1.9619141-0.2705078L9.3793945,53.9648438
	L9.3793945,53.9648438z"/>
<polygon fill="#0000FF" points="10.3925781,55.5322266 12.0454102,55.5322266 12.0454102,46.2792969 10.3925781,46.2792969 
	10.3925781,55.5322266 "/>
<path fill-rule="evenodd" fill="#0000FF" d="M13.6020508,55.5322266h1.652832v-6.3535156h-1.652832V55.5322266
	L13.6020508,55.5322266z M13.6020508,48.0185547h1.652832v-1.5791016h-1.652832V48.0185547L13.6020508,48.0185547z"/>
<path fill="#0000FF" d="M16.7744141,55.5322266h1.652832v-3.109375c0-0.8144531,0.2587891-2.109375,1.4555664-2.109375
	c1.0610352,0,1.0732422,1.0488281,1.0732422,1.8261719v3.3925781h1.6533203v-4.0097656
	c0-1.4306641-0.6542969-2.4921875-2.1586914-2.4921875c-0.8637695,0-1.5668945,0.2832031-2.0844727,1.0117188h-0.0253906v-0.8632813
	h-1.5664063V55.5322266L16.7744141,55.5322266z"/>
<path fill-rule="evenodd" fill="#0000FF" d="M24.1289063,55.5322266h1.6518555v-6.3535156h-1.6518555V55.5322266
	L24.1289063,55.5322266z M24.1289063,48.0185547h1.6518555v-1.5791016h-1.6518555V48.0185547L24.1289063,48.0185547z"/>
<path fill="#0000FF" d="M31.5688477,49.2392578c-0.4560547-0.1347656-0.9375-0.2089844-1.6035156-0.2089844
	c-1.9863281,0-3.0722656,1.4560547-3.0722656,3.2929688c0,1.9375,1.0488281,3.3564453,3.1337891,3.3564453
	c0.6787109,0,1.171875-0.0615234,1.6533203-0.2099609l-0.0737305-1.3691406
	c-0.2841797,0.1230469-0.8022461,0.296875-1.2705078,0.296875c-1.1601563,0-1.7148438-0.9013672-1.7148438-2.0742188
	c0-1.1953125,0.652832-2.0097656,1.6767578-2.0097656c0.5063477,0,0.8276367,0.0976563,1.1230469,0.234375L31.5688477,49.2392578
	L31.5688477,49.2392578z"/>
<path fill-rule="evenodd" fill="#0000FF" d="M32.890625,50.9296875c0.5556641-0.4189453,1.2587891-0.6904297,1.9614258-0.6904297
	c0.9750977,0,1.4316406,0.3457031,1.4316406,1.3691406h-0.9130859c-0.690918,0-1.5048828,0.0625-2.1342773,0.3701172
	c-0.6293945,0.3085938-1.0859375,0.8642578-1.0859375,1.8134766c0,1.2089844,1.0981445,1.8876953,2.2216797,1.8876953
	c0.7514648,0,1.578125-0.3945313,1.9604492-1.0986328h0.0253906c0.0126953,0.1982422,0.0126953,0.6171875,0.0737305,0.9511719
	h1.4560547c-0.0371094-0.4941406-0.0625-0.9375-0.074707-1.4189453c-0.0117188-0.4697266-0.0239258-0.9501953-0.0239258-1.5917969
	v-0.8144531c0-1.8740234-0.8022461-2.6767578-2.7392578-2.6767578c-0.7026367,0-1.5664063,0.1855469-2.2080078,0.4804688
	L32.890625,50.9296875L32.890625,50.9296875z M33.7299805,53.6933594c0-0.9736328,1.0986328-1.0986328,1.8378906-1.0986328
	h0.7158203c0,0.4941406-0.0742188,0.9511719-0.3461914,1.3085938c-0.2583008,0.3457031-0.652832,0.5683594-1.1591797,0.5683594
	C34.1860352,54.4716797,33.7299805,54.2363281,33.7299805,53.6933594L33.7299805,53.6933594z"/>
<polygon fill="#0000FF" points="39.2338867,55.5322266 40.8862305,55.5322266 40.8862305,46.2792969 39.2338867,46.2792969 
	39.2338867,55.5322266 "/>
<path fill="#0000FF" d="M51.9560547,53.9648438c-0.4072266,0.2099609-1.2084961,0.3583984-1.8876953,0.3583984
	c-1.8378906,0-2.9238281-1.3203125-2.9238281-3.0722656c0-1.765625,1.1103516-3.1220703,2.8867188-3.1220703
	c0.6171875,0,1.2094727,0.0869141,1.8632813,0.4560547l0.1230469-1.4541016
	c-0.6289063-0.2470703-1.3813477-0.3583984-1.9492188-0.3583984c-2.9238281,0-4.7246094,1.6523438-4.7246094,4.6015625
	c0,2.9121094,1.9370117,4.3056641,4.7246094,4.3056641c0.6542969,0,1.3325195-0.1230469,1.9619141-0.2705078L51.9560547,53.9648438
	L51.9560547,53.9648438z"/>
<path fill-rule="evenodd" fill="#0000FF" d="M52.5253906,52.3974609c0,1.8261719,1.2207031,3.2822266,3.3183594,3.2822266
	c2.1098633,0,3.3310547-1.4560547,3.3310547-3.2822266c0-2.0966797-1.4433594-3.3671875-3.3310547-3.3671875
	C53.9682617,49.0302734,52.5253906,50.3007813,52.5253906,52.3974609L52.5253906,52.3974609z M54.2519531,52.2001953
	c0-0.9492188,0.5185547-1.8867188,1.5917969-1.8867188c1.0859375,0,1.6040039,0.9121094,1.6040039,1.8867188
	c0,1.0605469-0.3330078,2.1972656-1.6040039,2.1972656C54.5854492,54.3974609,54.2519531,53.2490234,54.2519531,52.2001953
	L54.2519531,52.2001953z"/>
<path fill="#0000FF" d="M60.2246094,55.5322266h1.6533203v-3.0859375c0-0.8261719,0.1357422-2.1328125,1.2329102-2.1328125
	c0.9506836,0,0.9506836,0.8388672,0.9506836,1.4296875v3.7890625h1.652832v-3.0859375
	c0-0.8261719,0.1357422-2.1328125,1.234375-2.1328125c0.9492188,0,0.9492188,0.8388672,0.9492188,1.4296875v3.7890625h1.6533203
	v-4.0097656c0-1.4179688-0.4438477-2.4921875-2.0112305-2.4921875c-0.7768555,0-1.6035156,0.3574219-1.9863281,1.1230469
	c-0.3579102-0.7910156-0.9863281-1.1230469-1.875-1.1230469c-0.6166992,0-1.3696289,0.2597656-1.887207,1.0361328h-0.0249023
	v-0.8876953h-1.5419922V55.5322266L60.2246094,55.5322266z"/>
<path fill="#0000FF" d="M70.9711914,55.5322266h1.6533203v-3.0859375c0-0.8261719,0.1352539-2.1328125,1.2333984-2.1328125
	c0.949707,0,0.949707,0.8388672,0.949707,1.4296875v3.7890625h1.6533203v-3.0859375
	c0-0.8261719,0.1357422-2.1328125,1.2338867-2.1328125c0.949707,0,0.949707,0.8388672,0.949707,1.4296875v3.7890625h1.6533203
	v-4.0097656c0-1.4179688-0.4443359-2.4921875-2.0112305-2.4921875c-0.7768555,0-1.6035156,0.3574219-1.9863281,1.1230469
	c-0.3569336-0.7910156-0.9863281-1.1230469-1.875-1.1230469c-0.6171875,0-1.3691406,0.2597656-1.887207,1.0361328h-0.0244141
	v-0.8876953h-1.5424805V55.5322266L70.9711914,55.5322266z"/>
<path fill-rule="evenodd" fill="#0000FF" d="M81.7797852,55.5322266h1.652832v-6.3535156h-1.652832V55.5322266
	L81.7797852,55.5322266z M81.7797852,48.0185547h1.652832v-1.5791016h-1.652832V48.0185547L81.7797852,48.0185547z"/>
<path fill="#0000FF" d="M88.8374023,49.2646484c-0.5185547-0.1103516-1.0244141-0.234375-1.8017578-0.234375
	c-1.2949219,0-2.4912109,0.6054688-2.4912109,1.9736328c0,2.2949219,2.8740234,1.4423828,2.8740234,2.6894531
	c0,0.6162109-0.6660156,0.7783203-1.0859375,0.7783203c-0.5673828,0-1.1098633-0.1621094-1.6279297-0.4199219l-0.0981445,1.3574219
	c0.6049805,0.1601563,1.2456055,0.2705078,1.8745117,0.2705078c1.3457031,0,2.6640625-0.5917969,2.6640625-2.0732422
	c0-2.2939453-2.8730469-1.6523438-2.8730469-2.6630859c0-0.5439453,0.53125-0.7041016,0.9736328-0.7041016
	c0.6044922,0,0.9755859,0.0986328,1.4814453,0.2714844L88.8374023,49.2646484L88.8374023,49.2646484z"/>
<path fill="#0000FF" d="M94.0961914,49.2646484c-0.5185547-0.1103516-1.0244141-0.234375-1.8027344-0.234375
	c-1.2949219,0-2.4921875,0.6054688-2.4921875,1.9736328c0,2.2949219,2.8759766,1.4423828,2.8759766,2.6894531
	c0,0.6162109-0.6689453,0.7783203-1.0859375,0.7783203c-0.5673828,0-1.1103516-0.1621094-1.6279297-0.4199219l-0.1005859,1.3574219
	c0.6044922,0.1601563,1.2470703,0.2705078,1.8740234,0.2705078c1.3457031,0,2.6660156-0.5917969,2.6660156-2.0732422
	c0-2.2939453-2.875-1.6523438-2.875-2.6630859c0-0.5439453,0.53125-0.7041016,0.9765625-0.7041016
	c0.6035156,0,0.9726563,0.0986328,1.4794922,0.2714844L94.0961914,49.2646484L94.0961914,49.2646484z"/>
<path fill-rule="evenodd" fill="#0000FF" d="M95.5024414,55.5322266h1.6523438v-6.3535156h-1.6523438V55.5322266
	L95.5024414,55.5322266z M95.5024414,48.0185547h1.6523438v-1.5791016h-1.6523438V48.0185547L95.5024414,48.0185547z"/>
<path fill-rule="evenodd" fill="#0000FF" d="M98.2680664,52.3974609c0,1.8261719,1.2226563,3.2822266,3.3183594,3.2822266
	c2.109375,0,3.3320313-1.4560547,3.3320313-3.2822266c0-2.0966797-1.4443359-3.3671875-3.3320313-3.3671875
	C99.7114258,49.0302734,98.2680664,50.3007813,98.2680664,52.3974609L98.2680664,52.3974609z M99.9946289,52.2001953
	c0-0.9492188,0.5195313-1.8867188,1.5917969-1.8867188c1.0849609,0,1.6044922,0.9121094,1.6044922,1.8867188
	c0,1.0605469-0.3330078,2.1972656-1.6044922,2.1972656C100.3295898,54.3974609,99.9946289,53.2490234,99.9946289,52.2001953
	L99.9946289,52.2001953z"/>
<path fill="#0000FF" d="M105.9936523,55.5322266h1.6513672v-3.109375c0-0.8144531,0.2597656-2.109375,1.4570313-2.109375
	c1.0605469,0,1.0722656,1.0488281,1.0722656,1.8261719v3.3925781h1.6542969v-4.0097656
	c0-1.4306641-0.6542969-2.4921875-2.1591797-2.4921875c-0.8642578,0-1.5673828,0.2832031-2.0869141,1.0117188h-0.0224609v-0.8632813
	h-1.5664063V55.5322266L105.9936523,55.5322266z"/>
<path fill-rule="evenodd" fill="#0000FF" d="M113.347168,55.5322266h1.6513672v-6.3535156h-1.6513672V55.5322266
	L113.347168,55.5322266z M113.347168,48.0185547h1.6513672v-1.5791016h-1.6513672V48.0185547L113.347168,48.0185547z"/>
<path fill="#0000FF" d="M116.5200195,55.5322266h1.6523438v-3.109375c0-0.8144531,0.2578125-2.109375,1.4550781-2.109375
	c1.0605469,0,1.0742188,1.0488281,1.0742188,1.8261719v3.3925781h1.6533203v-4.0097656
	c0-1.4306641-0.6552734-2.4921875-2.1591797-2.4921875c-0.8642578,0-1.5673828,0.2832031-2.0849609,1.0117188h-0.0244141v-0.8632813
	h-1.5664063V55.5322266L116.5200195,55.5322266z"/>
<path fill-rule="evenodd" fill="#0000FF" d="M126.5620117,54.2490234c-0.9482422,0-1.4072266-1.0625-1.4072266-1.9257813
	c0-0.9746094,0.3574219-2.0097656,1.4824219-2.0097656c0.9628906,0,1.3818359,0.8867188,1.3818359,1.9736328
	C128.019043,53.3476563,127.6000977,54.2490234,126.5620117,54.2490234L126.5620117,54.2490234z M128.0922852,49.1787109v0.8632813
	h-0.0253906c-0.4560547-0.7285156-1.1103516-1.0117188-1.9472656-1.0117188c-1.9003906,0-2.6914063,1.7646484-2.6914063,3.2929688
	c0,1.703125,0.7167969,3.2089844,2.5908203,3.2089844c0.9257813,0,1.6669922-0.4697266,1.9755859-1.0117188h0.0244141
	c0,1.0976563-0.0869141,2.4667969-1.9130859,2.4667969c-0.5175781,0-1.34375-0.2841797-1.8496094-0.5546875l-0.1367188,1.40625
	c0.7890625,0.3330078,1.5410156,0.4316406,2.1953125,0.4316406c2.6660156,0,3.3574219-1.6289063,3.3574219-3.3554688v-5.7363281
	H128.0922852L128.0922852,49.1787109z"/>
<path fill="#0000FF" d="M141.3442383,47.1308594c-0.7382813-0.2226563-1.5292969-0.3583984-2.5273438-0.3583984
	c-2.9238281,0-4.7265625,1.6523438-4.7265625,4.6015625c0,2.9121094,1.9375,4.3056641,4.7265625,4.3056641
	c0.9248047,0,1.8740234-0.1972656,2.7880859-0.4443359v-4.6376953h-3.4794922v1.3564453h1.8261719v2.2460938
	c-0.2958984,0.0722656-0.6660156,0.1230469-1.1347656,0.1230469c-1.8388672,0-2.9238281-1.3203125-2.9238281-3.0722656
	c0-1.765625,1.1103516-3.1220703,3.1210938-3.1220703c0.6914063,0,1.5537109,0.1484375,2.2197266,0.4560547L141.3442383,47.1308594
	L141.3442383,47.1308594z"/>
<path fill="#0000FF" d="M143.0874023,55.5322266h1.6533203v-2.3320313c0-0.9130859,0-2.5908203,1.34375-2.5908203
	c0.2949219,0,0.5917969,0.0488281,0.7402344,0.1357422v-1.6650391c-0.1738281-0.0498047-0.3457031-0.0498047-0.5058594-0.0498047
	c-0.9882813,0-1.6660156,1-1.7402344,1.5917969h-0.0253906v-1.4433594h-1.4658203V55.5322266L143.0874023,55.5322266z"/>
<path fill-rule="evenodd" fill="#0000FF" d="M146.9975586,52.3974609c0,1.8261719,1.2226563,3.2822266,3.3203125,3.2822266
	c2.109375,0,3.3310547-1.4560547,3.3310547-3.2822266c0-2.0966797-1.4433594-3.3671875-3.3310547-3.3671875
	C148.4418945,49.0302734,146.9975586,50.3007813,146.9975586,52.3974609L146.9975586,52.3974609z M148.7260742,52.2001953
	c0-0.9492188,0.5185547-1.8867188,1.5917969-1.8867188c1.0849609,0,1.6025391,0.9121094,1.6025391,1.8867188
	c0,1.0605469-0.3320313,2.1972656-1.6025391,2.1972656C149.059082,54.3974609,148.7260742,53.2490234,148.7260742,52.2001953
	L148.7260742,52.2001953z"/>
<path fill="#0000FF" d="M160.559082,49.1787109h-1.6533203v3.1083984c0,0.8144531-0.2607422,2.1103516-1.4580078,2.1103516
	c-1.0605469,0-1.0712891-1.0498047-1.0712891-1.8261719v-3.3925781h-1.6533203v4.0078125
	c0,1.4335938,0.6542969,2.4931641,2.1601563,2.4931641c0.8613281,0,1.578125-0.3945313,2.0839844-1.0117188h0.0253906v0.8642578
	h1.5664063V49.1787109L160.559082,49.1787109z"/>
<path fill-rule="evenodd" fill="#0000FF" d="M162.0405273,58.1230469h1.6533203v-3.3193359h0.0253906
	c0.5791016,0.703125,1.1582031,0.8759766,1.8613281,0.8759766c1.9863281,0,2.7021484-1.6025391,2.7021484-3.3427734
	c0-1.7519531-0.7158203-3.3066406-2.6650391-3.3066406c-0.9746094,0-1.6035156,0.4316406-1.9736328,1.0488281h-0.0253906v-0.9003906
	h-1.578125V58.1230469L162.0405273,58.1230469z M165.1860352,50.3134766c1.0742188,0,1.3691406,1.171875,1.3691406,2.0234375
	c0,0.875-0.3066406,2.0605469-1.3925781,2.0605469c-1.0996094,0-1.4570313-1.1601563-1.4570313-2.0605469
	C163.7055664,51.4482422,164.1254883,50.3134766,165.1860352,50.3134766L165.1860352,50.3134766z"/>
<polygon fill="#D8D700" points="0.9287109,62.0458984 168.2358398,62.0458984 168.2358398,64.8330078 0.9287109,64.8330078 
	0.9287109,62.0458984 "/>
<polygon fill="#09A3B2" points="0.9287109,62.0517578 134.7739258,62.0517578 134.7739258,64.8408203 0.9287109,64.8408203 
	0.9287109,62.0517578 "/>
<polygon fill="#2B307C" points="0,62.0419922 46.0092773,62.0419922 46.0092773,64.8300781 0,64.8300781 0,62.0419922 "/>
</svg>
